<?xml version="1.0" standalone="no"?><!DOCTYPE svg PUBLIC "-//W3C//DTD SVG 1.1//EN" "http://www.w3.org/Graphics/SVG/1.1/DTD/svg11.dtd"><svg t="1658391116995" class="icon" viewBox="0 0 1024 1024" version="1.1" xmlns="http://www.w3.org/2000/svg" p-id="1911" xmlns:xlink="http://www.w3.org/1999/xlink" width="200" height="200"><defs><style type="text/css">@font-face { font-family: feedback-iconfont; src: url("//at.alicdn.com/t/font_1031158_u69w8yhxdu.woff2?t=1630033759944") format("woff2"), url("//at.alicdn.com/t/font_1031158_u69w8yhxdu.woff?t=1630033759944") format("woff"), url("//at.alicdn.com/t/font_1031158_u69w8yhxdu.ttf?t=1630033759944") format("truetype"); }
</style></defs><path d="M341.333333 533.333333a42.666667 42.666667 0 1 0-42.666666-42.666666 42.794667 42.794667 0 0 0 42.666666 42.666666z m170.666667 64a64 64 0 1 0-64-64 64 64 0 0 0 64 64z m234.666667 106.666667a64 64 0 1 0-64-64 64 64 0 0 0 64 64zM533.333333 213.333333a64 64 0 0 0 0 128v-21.333333a42.794667 42.794667 0 0 0 42.666667 42.666667 128 128 0 0 0 256 0 85.333333 85.333333 0 0 1 85.333333 85.333333v21.333333a64 64 0 0 0 0 128v341.333334h-128v-106.666667H490.666667v106.666667h-128v-107.733334a255.637333 255.637333 0 0 1-84.48-21.973333A214.570667 214.570667 0 0 1 150.4 640 85.333333 85.333333 0 0 0 149.333333 469.333333v-106.666666h170.666667a42.794667 42.794667 0 0 0 42.666667-42.666667V192a42.794667 42.794667 0 0 0-42.666667-42.666667H149.333333V64a42.794667 42.794667 0 0 1 42.666667-42.666667h298.666667a42.794667 42.794667 0 0 1 42.666666 42.666667h-64v128h64z" fill="#EFF1F4" p-id="1912"></path><path d="M960 85.333333c23.466667 0 42.666667 45.226667 42.666667 74.666667a49.066667 49.066667 0 0 1-42.666667 53.333333 49.066667 49.066667 0 0 1-42.666667-53.333333c0-29.44 19.2-74.666667 42.666667-74.666667zM789.333333 938.666667h128v64h-128zM917.333333 469.333333v128a64 64 0 0 1 0-128z" fill="#B0BAC6" p-id="1913"></path><path d="M746.666667 640m-64 0a64 64 0 1 0 128 0 64 64 0 1 0-128 0Z" fill="#B0BAC6" p-id="1914"></path><path d="M597.333333 106.666667v85.333333h-128V64h85.333334a42.794667 42.794667 0 0 1 42.666666 42.666667zM832 362.666667a128 128 0 0 1-256 0zM533.333333 341.333333a64 64 0 0 1 0-128v128z" fill="#B0BAC6" p-id="1915"></path><path d="M512 533.333333m-64 0a64 64 0 1 0 128 0 64 64 0 1 0-128 0Z" fill="#B0BAC6" p-id="1916"></path><path d="M362.666667 938.666667h128v64h-128z" fill="#B0BAC6" p-id="1917"></path><path d="M341.333333 490.666667m-42.666666 0a42.666667 42.666667 0 1 0 85.333333 0 42.666667 42.666667 0 1 0-85.333333 0Z" fill="#B0BAC6" p-id="1918"></path><path d="M149.333333 938.666667h128v64H149.333333z" fill="#B0BAC6" p-id="1919"></path><path d="M213.333333 245.333333a42.666667 32 0 1 0 85.333334 0 42.666667 32 0 1 0-85.333334 0Z" fill="#EFF1F4" p-id="1920"></path><path d="M128 277.333333c23.466667 0 42.666667-14.293333 42.666667-32S151.466667 213.333333 128 213.333333s-42.666667 14.293333-42.666667 32 19.2 32 42.666667 32z m128 0c23.466667 0 42.666667-14.293333 42.666667-32s-19.2-32-42.666667-32-42.666667 14.293333-42.666667 32 19.2 32 42.666667 32zM21.333333 320V192a42.794667 42.794667 0 0 1 42.666667-42.666667h256a42.794667 42.794667 0 0 1 42.666667 42.666667v128a42.794667 42.794667 0 0 1-42.666667 42.666667H64a42.794667 42.794667 0 0 1-42.666667-42.666667zM149.333333 469.333333a85.333333 85.333333 0 0 1 1.066667 170.666667c-0.64-7.04-1.066667-14.08-1.066667-21.333333z" fill="#B0BAC6" p-id="1921"></path><path d="M278.186667 808.96L277.333333 810.666667v128H149.333333V640h1.066667a214.570667 214.570667 0 0 0 127.786667 168.96z" fill="#EFF1F4" p-id="1922"></path><path d="M85.333333 245.333333a42.666667 32 0 1 0 85.333334 0 42.666667 32 0 1 0-85.333334 0Z" fill="#EFF1F4" p-id="1923"></path><path d="M320 384H64a64 64 0 0 1-64-64V192a64 64 0 0 1 64-64h256a64 64 0 0 1 64 64v128a64 64 0 0 1-64 64zM64 170.666667a21.333333 21.333333 0 0 0-21.333333 21.333333v128a21.333333 21.333333 0 0 0 21.333333 21.333333h256a21.333333 21.333333 0 0 0 21.333333-21.333333V192a21.333333 21.333333 0 0 0-21.333333-21.333333zM277.333333 1024H149.333333a21.333333 21.333333 0 0 1-21.333333-21.333333V640h42.666667v341.333333h85.333333v-170.666666h42.666667v192a21.333333 21.333333 0 0 1-21.333334 21.333333zM789.333333 917.333333h128v42.666667h-128zM362.666667 917.333333h128v42.666667h-128z" fill="#2A3244" p-id="1924"></path><path d="M149.333333 917.333333h128v42.666667H149.333333z" fill="#2A3244" p-id="1925"></path><path d="M917.333333 1024h-128a21.333333 21.333333 0 0 1-21.333333-21.333333v-149.333334H512v149.333334a21.333333 21.333333 0 0 1-21.333333 21.333333h-128a21.333333 21.333333 0 0 1-21.333334-21.333333v-152.810667a276.458667 276.458667 0 0 1-71.978666-21.482667 234.666667 234.666667 0 0 1-140.16-186.069333A252.714667 252.714667 0 0 1 128 618.666667V362.666667h42.666667v256c0 6.592 0.405333 12.970667 0.981333 19.370666a192.362667 192.362667 0 0 0 115.456 151.466667 234.496 234.496 0 0 0 77.354667 20.096 21.333333 21.333333 0 0 1 19.541333 21.333333V981.333333h85.333333v-149.333333a21.333333 21.333333 0 0 1 21.333334-21.333333h298.666666a21.333333 21.333333 0 0 1 21.333334 21.333333v149.333333h85.333333V448a64 64 0 0 0-64-64H576a64 64 0 0 1-64-64V192h42.666667v128a21.333333 21.333333 0 0 0 21.333333 21.333333h256a106.794667 106.794667 0 0 1 106.666667 106.666667v554.666667a21.333333 21.333333 0 0 1-21.333334 21.333333zM170.666667 149.333333H128V64a64 64 0 0 1 64-64h298.666667a64 64 0 0 1 64 64h-42.666667a21.333333 21.333333 0 0 0-21.333333-21.333333H192a21.333333 21.333333 0 0 0-21.333333 21.333333z" fill="#2A3244" p-id="1926"></path><path d="M256 298.666667a58.752 58.752 0 0 1-64-53.333334A58.752 58.752 0 0 1 256 192a58.752 58.752 0 0 1 64 53.333333 58.752 58.752 0 0 1-64 53.333334z m0-64c-13.226667 0-21.333333 6.890667-21.333333 10.666666s8.106667 10.666667 21.333333 10.666667 21.333333-6.890667 21.333333-10.666667-8.106667-10.666667-21.333333-10.666666zM128 298.666667a58.752 58.752 0 0 1-64-53.333334A58.752 58.752 0 0 1 128 192a58.752 58.752 0 0 1 64 53.333333A58.752 58.752 0 0 1 128 298.666667z m0-64c-13.226667 0-21.333333 6.890667-21.333333 10.666666s8.106667 10.666667 21.333333 10.666667 21.333333-6.890667 21.333333-10.666667-8.106667-10.666667-21.333333-10.666666zM298.666667 64h85.333333v42.666667h-85.333333zM170.666667 64h85.333333v42.666667H170.666667zM597.333333 213.333333h-128a21.333333 21.333333 0 0 1-21.333333-21.333333V64a21.333333 21.333333 0 0 1 21.333333-21.333333h85.333334a64 64 0 0 1 64 64v85.333333a21.333333 21.333333 0 0 1-21.333334 21.333333z m-106.666666-42.666666h85.333333V106.666667a21.333333 21.333333 0 0 0-21.333333-21.333334h-64zM917.333333 469.333333v-42.666666a11.2 11.2 0 0 0-7.338666 2.432C920 418.965333 938.666667 345.258667 938.666667 213.333333h42.666666c0 231.061333-44.8 256-64 256z" fill="#2A3244" p-id="1927"></path><path d="M960 234.666667a70.037333 70.037333 0 0 1-64-74.666667C896 126.506667 917.973333 64 960 64s64 62.506667 64 96a70.037333 70.037333 0 0 1-64 74.666667z m0-127.808A78.122667 78.122667 0 0 0 938.666667 160c0 18.858667 11.242667 32 21.333333 32s21.333333-13.141333 21.333333-32a78.122667 78.122667 0 0 0-21.333333-53.141333zM960.618667 106.666667zM704 512a149.525333 149.525333 0 0 1-149.333333-149.333333h42.666666a106.666667 106.666667 0 0 0 213.333334 0h42.666666a149.525333 149.525333 0 0 1-149.333333 149.333333zM746.666667 725.333333a85.333333 85.333333 0 1 1 85.333333-85.333333 85.333333 85.333333 0 0 1-85.333333 85.333333z m0-128a42.666667 42.666667 0 1 0 42.666666 42.666667 42.666667 42.666667 0 0 0-42.666666-42.666667zM341.333333 554.666667a64 64 0 1 1 64-64 64 64 0 0 1-64 64z m0-85.333334a21.333333 21.333333 0 1 0 21.333334 21.333334 21.333333 21.333333 0 0 0-21.333334-21.333334zM512 618.666667a85.333333 85.333333 0 1 1 85.333333-85.333334 85.333333 85.333333 0 0 1-85.333333 85.333334z m0-128a42.666667 42.666667 0 1 0 42.666667 42.666666 42.666667 42.666667 0 0 0-42.666667-42.666666zM917.333333 618.666667a85.333333 85.333333 0 0 1 0-170.666667v42.666667a42.666667 42.666667 0 0 0 0 85.333333zM533.333333 362.666667a85.333333 85.333333 0 0 1 0-170.666667v42.666667a42.666667 42.666667 0 0 0 0 85.333333zM150.677333 661.333333L149.333333 640v-21.333333a64 64 0 0 0 0-128v-42.666667a106.666667 106.666667 0 0 1 1.344 213.333333z" fill="#2A3244" p-id="1928"></path></svg>